<svg width="28" height="36" viewBox="0 0 36 32" fill="none" xmlns="http://www.w3.org/2000/svg">
<g filter="url(#filter0_d_5_60)">
<path d="M25.6364 0H10.3637C8.91756 0.00173221 7.53118 0.576962 6.50863 1.59951C5.48608 2.62206 4.91085 4.00844 4.90912 5.45455L4.90912 18.5455C4.91085 19.9916 5.48608 21.3779 6.50863 22.4005C7.53118 23.423 8.91756 23.9983 10.3637 24H25.6364C27.0825 23.9983 28.4689 23.423 29.4914 22.4005C30.514 21.3779 31.0892 19.9916 31.0909 18.5455V5.45455C31.0892 4.00844 30.514 2.62206 29.4914 1.59951C28.4689 0.576962 27.0825 0.00173221 25.6364 0ZM10.3637 2.18182H25.6364C26.5044 2.18182 27.3368 2.52662 27.9506 3.14038C28.5643 3.75413 28.9091 4.58656 28.9091 5.45455V6.54545H7.09094V5.45455C7.09094 4.58656 7.43574 3.75413 8.0495 3.14038C8.66325 2.52662 9.49568 2.18182 10.3637 2.18182ZM25.6364 21.8182H10.3637C9.49568 21.8182 8.66325 21.4734 8.0495 20.8596C7.43574 20.2459 7.09094 19.4134 7.09094 18.5455V8.72727H28.9091V18.5455C28.9091 19.4134 28.5643 20.2459 27.9506 20.8596C27.3368 21.4734 26.5044 21.8182 25.6364 21.8182ZM25.6364 13.0909C25.6364 13.3802 25.5215 13.6577 25.3169 13.8623C25.1123 14.0669 24.8348 14.1818 24.5455 14.1818H11.4546C11.1652 14.1818 10.8878 14.0669 10.6832 13.8623C10.4786 13.6577 10.3637 13.3802 10.3637 13.0909C10.3637 12.8016 10.4786 12.5241 10.6832 12.3195C10.8878 12.1149 11.1652 12 11.4546 12H24.5455C24.8348 12 25.1123 12.1149 25.3169 12.3195C25.5215 12.5241 25.6364 12.8016 25.6364 13.0909ZM21.2728 17.4545C21.2728 17.7439 21.1578 18.0214 20.9532 18.2259C20.7486 18.4305 20.4712 18.5455 20.1818 18.5455H11.4546C11.1652 18.5455 10.8878 18.4305 10.6832 18.2259C10.4786 18.0214 10.3637 17.7439 10.3637 17.4545C10.3637 17.1652 10.4786 16.8877 10.6832 16.6832C10.8878 16.4786 11.1652 16.3636 11.4546 16.3636H20.1818C20.4712 16.3636 20.7486 16.4786 20.9532 16.6832C21.1578 16.8877 21.2728 17.1652 21.2728 17.4545ZM8.18185 4.36364C8.18185 4.14788 8.24583 3.93696 8.3657 3.75756C8.48557 3.57816 8.65594 3.43834 8.85528 3.35577C9.05462 3.2732 9.27397 3.2516 9.48558 3.29369C9.6972 3.33578 9.89158 3.43968 10.0441 3.59225C10.1967 3.74481 10.3006 3.9392 10.3427 4.15081C10.3848 4.36243 10.3632 4.58177 10.2806 4.78111C10.1981 4.98045 10.0582 5.15082 9.87883 5.27069C9.69943 5.39056 9.48852 5.45455 9.27275 5.45455C8.98343 5.45455 8.70595 5.33961 8.50137 5.13503C8.29678 4.93044 8.18185 4.65296 8.18185 4.36364ZM11.4546 4.36364C11.4546 4.14788 11.5186 3.93696 11.6384 3.75756C11.7583 3.57816 11.9287 3.43834 12.128 3.35577C12.3273 3.2732 12.5467 3.2516 12.7583 3.29369C12.9699 3.33578 13.1643 3.43968 13.3169 3.59225C13.4694 3.74481 13.5733 3.9392 13.6154 4.15081C13.6575 4.36243 13.6359 4.58177 13.5534 4.78111C13.4708 4.98045 13.331 5.15082 13.1516 5.27069C12.9722 5.39056 12.7612 5.45455 12.5455 5.45455C12.2562 5.45455 11.9787 5.33961 11.7741 5.13503C11.5695 4.93044 11.4546 4.65296 11.4546 4.36364ZM14.7273 4.36364C14.7273 4.14788 14.7913 3.93696 14.9112 3.75756C15.031 3.57816 15.2014 3.43834 15.4007 3.35577C15.6001 3.2732 15.8194 3.2516 16.031 3.29369C16.2427 3.33578 16.437 3.43968 16.5896 3.59225C16.7422 3.74481 16.8461 3.9392 16.8882 4.15081C16.9303 4.36243 16.9086 4.58177 16.8261 4.78111C16.7435 4.98045 16.6037 5.15082 16.4243 5.27069C16.2449 5.39056 16.034 5.45455 15.8182 5.45455C15.5289 5.45455 15.2514 5.33961 15.0468 5.13503C14.8422 4.93044 14.7273 4.65296 14.7273 4.36364Z" fill="#111238"/>
</g>
<defs>
<filter id="filter0_d_5_60" x="0.909119" y="0" width="34.1818" height="32" filterUnits="userSpaceOnUse" color-interpolation-filters="sRGB">
<feFlood flood-opacity="0" result="BackgroundImageFix"/>
<feColorMatrix in="SourceAlpha" type="matrix" values="0 0 0 0 0 0 0 0 0 0 0 0 0 0 0 0 0 0 127 0" result="hardAlpha"/>
<feOffset dy="4"/>
<feGaussianBlur stdDeviation="2"/>
<feComposite in2="hardAlpha" operator="out"/>
<feColorMatrix type="matrix" values="0 0 0 0 0 0 0 0 0 0 0 0 0 0 0 0 0 0 0.25 0"/>
<feBlend mode="normal" in2="BackgroundImageFix" result="effect1_dropShadow_5_60"/>
<feBlend mode="normal" in="SourceGraphic" in2="effect1_dropShadow_5_60" result="shape"/>
</filter>
</defs>
</svg>
